<svg id="Layer_1" data-name="Layer 1" xmlns="http://www.w3.org/2000/svg" viewBox="0 0 1134.95 232.59"><defs><style>.cls-1{fill:#fabb17;}.cls-2{fill:#1c1c1b;}</style></defs><rect class="cls-1" width="246.34" height="102.41"/><rect class="cls-1" y="130.18" width="246.34" height="102.41"/><path class="cls-2" d="M390,69.59C390,88.31,381,96,357.08,96H320.93a2.1,2.1,0,0,1-2.29-2.28V4a2.11,2.11,0,0,1,2.29-2.29h34.29c19.87,0,30.16,7.72,30.16,25.3,0,10.29-3.58,16.72-12.29,20C385.66,49.73,390,56.87,390,69.59Zm-48.44-49.3V38.44h11.14c7.29,0,9.86-2.86,9.86-9.29s-2.57-8.86-9.86-8.86Zm25,46.87c0-7.43-2.71-10.15-11-10.15h-14V77.45h14C363.8,77.45,366.51,74.73,366.51,67.16Z"/><path class="cls-2" d="M470,4.43,442.53,64.59V93.74A2.1,2.1,0,0,1,440.24,96H421.38a2.09,2.09,0,0,1-2.28-2.28V64.59L391.66,4.43c-.71-1.57-.14-2.72,1.57-2.72h19.29c1.29,0,2.29.29,2.72,1.58l6.14,14.86c3.15,7.57,6.29,15.57,9.43,24.43,3.15-9,6.29-16.72,9.58-24.58l6-14.71a2.68,2.68,0,0,1,2.71-1.58h19.29C470.11,1.71,470.68,2.86,470,4.43Z"/><path class="cls-2" d="M544.56,41.3V90.88a2.49,2.49,0,0,1-1.86,2.72,108.4,108.4,0,0,1-29.44,4.14C484,97.74,471.68,84,471.68,49.16,471.68,15.86,482.83,0,517.41,0a123.13,123.13,0,0,1,22,2,2.41,2.41,0,0,1,2,2.57V18.72c0,2-.85,3-3.28,2.71a153.08,153.08,0,0,0-18.87-1.14c-19.14,0-23.86,3-23.86,28,0,24.58,4.57,30.15,20.43,30.15a57.88,57.88,0,0,0,7.29-.43V58.16H511.69a2.11,2.11,0,0,1-2.29-2.29V41.3A2.11,2.11,0,0,1,511.69,39h30.58A2.11,2.11,0,0,1,544.56,41.3Z"/><path class="cls-2" d="M630.29,41.3V90.88a2.49,2.49,0,0,1-1.86,2.72A108.38,108.38,0,0,1,599,97.74c-29.3,0-41.59-13.72-41.59-48.58C557.41,15.86,568.56,0,603.14,0a123.33,123.33,0,0,1,22,2,2.41,2.41,0,0,1,2,2.57V18.72c0,2-.86,3-3.29,2.71A152.91,152.91,0,0,0,605,20.29c-19.15,0-23.87,3-23.87,28,0,24.58,4.58,30.15,20.44,30.15a58.11,58.11,0,0,0,7.29-.43V58.16H597.42a2.11,2.11,0,0,1-2.28-2.29V41.3A2.11,2.11,0,0,1,597.42,39H628A2.11,2.11,0,0,1,630.29,41.3Z"/><path class="cls-2" d="M750.32,96H732.46A2.18,2.18,0,0,1,730,93.88l-3.57-22.43c-1.43-9.29-2.86-18.58-4.29-28.72-2.86,10.14-5.72,19.43-8.57,28.72l-7.29,22.72A2.46,2.46,0,0,1,703.74,96H690.16a2.46,2.46,0,0,1-2.57-1.85l-7-21.87c-3.15-9.57-6-19.29-9-29.86C670.16,53,668.73,62.73,667.3,72.3l-3.43,21.58A2.47,2.47,0,0,1,661.44,96H643.58c-1.57,0-2.43-.85-2.15-2.42L656,3.86a2.27,2.27,0,0,1,2.43-2.15h18.29a2.47,2.47,0,0,1,2.57,1.86l8.15,26.15c3.28,10.15,6.28,20.44,9.43,32.3,3.14-11.72,6.28-21.87,9.43-32L714.6,3.57a2.46,2.46,0,0,1,2.57-1.86h18.29a2.36,2.36,0,0,1,2.43,2.15L752.46,93.6C752.61,95.17,751.89,96,750.32,96Z"/><path class="cls-2" d="M827.19,78V93.74A2.09,2.09,0,0,1,824.91,96H768.75a2.1,2.1,0,0,1-2.29-2.28V4a2.11,2.11,0,0,1,2.29-2.29h54.73A2.1,2.1,0,0,1,825.76,4V19.72A2.1,2.1,0,0,1,823.48,22H789.61V38.87h31a2.1,2.1,0,0,1,2.29,2.28V56.59a2.11,2.11,0,0,1-2.29,2.28h-31V75.73h35.3A2.1,2.1,0,0,1,827.19,78Z"/><path class="cls-2" d="M893.78,21.15a139.57,139.57,0,0,0-19-1.43c-13,0-15.29,1.86-15.29,8.14,0,4.86,1.43,7.29,15.86,11.72l6,1.86c17.15,5.29,22.43,13.43,22.43,28.15,0,19.43-9.14,28.15-36,28.15a128,128,0,0,1-27.29-3c-1.43-.29-2-1.29-2-2.86V77.31c0-2,1.14-2.58,2.57-2.29,10.15,1.57,18.29,2.71,26.15,2.71,11.15,0,14-2.28,14-8.43,0-5.57-2.29-7.28-18-12.14L859.49,56c-15.87-4.85-22.3-14.14-22.3-29,0-18.29,9.58-27,34.58-27a115.06,115.06,0,0,1,22.58,2.29,2.37,2.37,0,0,1,2,2.57V19.15C896.35,20.86,895.35,21.29,893.78,21.15Z"/><path class="cls-2" d="M975.23,4V20a2.11,2.11,0,0,1-2.29,2.28h-20V93.74A2.1,2.1,0,0,1,950.65,96H932.08a2.1,2.1,0,0,1-2.29-2.28V22.29h-20A2.1,2.1,0,0,1,907.5,20V4a2.11,2.11,0,0,1,2.28-2.29h63.16A2.11,2.11,0,0,1,975.23,4Z"/><path class="cls-2" d="M1049.1,78V93.74a2.09,2.09,0,0,1-2.28,2.28H990.66a2.1,2.1,0,0,1-2.29-2.28V4a2.11,2.11,0,0,1,2.29-2.29h54.73A2.1,2.1,0,0,1,1047.67,4V19.72a2.1,2.1,0,0,1-2.28,2.29h-33.87V38.87h31a2.1,2.1,0,0,1,2.29,2.28V56.59a2.11,2.11,0,0,1-2.29,2.28h-31V75.73h35.3A2.1,2.1,0,0,1,1049.1,78Z"/><path class="cls-2" d="M1132.84,96h-19.15a2.43,2.43,0,0,1-2.57-1.71l-11.86-29.44h-11V93.74A2.09,2.09,0,0,1,1086,96h-18.58a2.1,2.1,0,0,1-2.29-2.28V4a2.11,2.11,0,0,1,2.29-2.29H1101c22.72,0,32.15,8.29,32.15,31.58,0,15.15-4,24-13,28.3l14.58,31.72C1135.41,95,1134.55,96,1132.84,96Zm-44.59-50.58h9.58c8.86,0,11.86-2.43,11.86-12.15,0-9.14-2.72-11.57-11.86-11.57h-9.58Z"/><path class="cls-2" d="M381.85,124.06v7.28A2.44,2.44,0,0,1,379.2,134H332.54v35.74h40.54a2.43,2.43,0,0,1,2.64,2.65v6.95a2.43,2.43,0,0,1-2.64,2.64H332.54v46a2.44,2.44,0,0,1-2.65,2.65h-8.6a2.44,2.44,0,0,1-2.65-2.65V124.06a2.44,2.44,0,0,1,2.65-2.65H379.2A2.44,2.44,0,0,1,381.85,124.06Z"/><path class="cls-2" d="M392.6,176c0-40.7,13.73-56.59,43.68-56.59,30.11,0,43.67,15.89,43.67,56.59s-13.56,56.58-43.67,56.58C406.33,232.59,392.6,216.71,392.6,176Zm72.63,0c0-33.59-7.28-44-29-44-21.51,0-29.12,10.42-29.12,44s7.61,44,29.12,44C458,220,465.23,209.59,465.23,176Z"/><path class="cls-2" d="M571.11,230.61H562a2.82,2.82,0,0,1-3-2l-18-39.38a27.26,27.26,0,0,1-3.8.17h-20V228a2.44,2.44,0,0,1-2.65,2.65h-8.6a2.44,2.44,0,0,1-2.65-2.65V124.06a2.43,2.43,0,0,1,2.65-2.65H537.2c25.31,0,36.23,9.6,36.23,33.92,0,17.87-5.79,27.79-18.7,31.76l18.53,40.37C574.09,229.45,573.1,230.61,571.11,230.61ZM559,155.33c0-17.21-5-21.68-22.34-21.68H517.18v43.52H536.7C554.07,177.17,559,172.7,559,155.33Z"/><path class="cls-2" d="M649.2,134.15c-8.44-1.49-13.4-2.32-21.17-2.32-17.87,0-23.33,4.3-23.33,16.71,0,10.59,4,15.39,17.53,19.53l8.94,2.81c22,6.78,28.79,13.9,28.79,30.44,0,21.84-11.75,31.27-37.89,31.27a118,118,0,0,1-28.13-3.47,2.9,2.9,0,0,1-2.31-3V219c0-2.15,1.32-2.64,3-2.31,10.43,2.15,17.21,3.47,26.48,3.47,17.53,0,24.81-4.8,24.81-18.53,0-9.76-3.47-13.56-18-18.2l-8.93-2.64c-21.84-6.79-28.46-15.72-28.46-31.44,0-20.18,10.75-29.95,36.4-29.95a109.44,109.44,0,0,1,23,2.49,2.7,2.7,0,0,1,2.32,2.81v7.11C652.18,133.65,651,134.48,649.2,134.15Z"/><path class="cls-2" d="M680.64,228V124.06a2.43,2.43,0,0,1,2.64-2.65h8.61a2.43,2.43,0,0,1,2.64,2.65V228a2.44,2.44,0,0,1-2.64,2.65h-8.61A2.44,2.44,0,0,1,680.64,228Z"/><path class="cls-2" d="M796.94,230.61h-9.76a3.11,3.11,0,0,1-3.14-1.82l-29.12-50.47-19,23V228a2.44,2.44,0,0,1-2.64,2.65h-8.61A2.44,2.44,0,0,1,722,228V124.06a2.43,2.43,0,0,1,2.64-2.65h8.61a2.43,2.43,0,0,1,2.64,2.65v58.4l45.83-59.4a4,4,0,0,1,3.15-1.65H795c2.15,0,3,1.49,1.65,3.31L764,167.07l34.91,60.39C799.92,229.28,798.93,230.61,796.94,230.61Z"/><path class="cls-2" d="M884.8,230.61h-9.1a2.83,2.83,0,0,1-3-2l-18-39.38a27.19,27.19,0,0,1-3.8.17h-20V228a2.44,2.44,0,0,1-2.65,2.65h-8.6A2.44,2.44,0,0,1,817,228V124.06a2.43,2.43,0,0,1,2.65-2.65h31.27c25.31,0,36.23,9.6,36.23,33.92,0,17.87-5.79,27.79-18.69,31.76L887,227.46C887.77,229.45,886.78,230.61,884.8,230.61Zm-12.08-75.28c0-17.21-5-21.68-22.34-21.68H830.86v43.52h19.52C867.75,177.17,872.72,172.7,872.72,155.33Z"/><path class="cls-2" d="M910.77,228V124.06a2.43,2.43,0,0,1,2.65-2.65H922a2.44,2.44,0,0,1,2.65,2.65V228a2.44,2.44,0,0,1-2.65,2.65h-8.6A2.44,2.44,0,0,1,910.77,228Z"/><path class="cls-2" d="M1034.69,124.06V228a2.44,2.44,0,0,1-2.65,2.65h-9.26a3.42,3.42,0,0,1-3.15-1.82l-41-63.54c-4.47-6.78-8.93-15.22-13.4-23,.16,7.44.83,15.88.83,23V228a2.44,2.44,0,0,1-2.65,2.65h-8.6a2.44,2.44,0,0,1-2.65-2.65V124.06a2.43,2.43,0,0,1,2.65-2.65H964a3.41,3.41,0,0,1,3.14,1.82l41,63.53c4.46,6.79,8.93,15.22,13.4,22.67-.33-7.28-.83-15.55-.83-22.67v-62.7a2.43,2.43,0,0,1,2.65-2.65h8.6A2.43,2.43,0,0,1,1034.69,124.06Z"/><path class="cls-2" d="M1135,174.19v50.13a3,3,0,0,1-2.15,3.14,83,83,0,0,1-29,5.13c-30.6,0-45.83-15.72-45.83-57.24,0-40.21,14.07-55.93,47-55.93a127.7,127.7,0,0,1,23.33,2.32,2.87,2.87,0,0,1,2.32,3v6.95c0,2.31-1.49,2.64-3.64,2.31a142.56,142.56,0,0,0-22-2c-23.82,0-32.43,8.6-32.43,43.51,0,35.41,8.94,45,31.94,45a66.3,66.3,0,0,0,16.71-2V184h-18.87a2.43,2.43,0,0,1-2.64-2.65v-7.11a2.43,2.43,0,0,1,2.64-2.65h30A2.43,2.43,0,0,1,1135,174.19Z"/></svg>